{"title":"Captain Phillips ENG TSCamRip.mp4","uid":9106604,"size":626101247,"categoryP":"video","categoryS":"movies","magnet":"?xt=urn:btih:d549d9959b645ca4ecac88fd4952ed7c38076996&amp;dn=Captain+Phillips+ENG+TSCamRip.mp4&amp;tr=udp%3A%2F%2Ftracker.openbittorrent.com%3A80&amp;tr=udp%3A%2F%2Fopen.demonii.com%3A1337&amp;tr=udp%3A%2F%2Ftracker.coppersurfer.tk%3A6969&amp;tr=udp%3A%2F%2Fexodus.desync.com%3A6969","seeders":2,"leechers":0,"uploader":"globeplus","files":-1,"time":1382892332,"description":"Captain Phillips ENG TSCamRip.mp4\n\nFormat                                   : MPEG-4\nFormat profile                           : Base Media\nCodec ID                                 : isom\nFile size                                : 597 MiB\nDuration                                 : 2h 7mn\nOverall bit rate mode                    : Variable\nOverall bit rate                         : 656 Kbps\nWriting application                      : Lavf54.32.101\n\nVideo\n\nID                                       : 1\nFormat                                   : AVC\nFormat/Info                              : Advanced Video Codec\nFormat profile                           : &lt;a class=&quot;__cf_email__&quot; href=&quot;/cdn-cgi/l/email-protection&quot; data-cfemail=&quot;9ed6f7f9f6ded2adb0ae&quot;&gt;[email&amp;#160;protected]&lt;/a&gt;&lt;script cf-hash='f9e31' type=&quot;text/javascript&quot;&gt;\n/* &lt;![CDATA[ */!function(){try{var t=&quot;currentScript&quot;in document?document.currentScript:function(){for(var t=document.getElementsByTagName(&quot;script&quot;),e=t.length;e--;)if(t[e].getAttribute(&quot;cf-hash&quot;))return t[e]}();if(t&amp;&amp;t.previousSibling){var e,r,n,i,c=t.previousSibling,a=c.getAttribute(&quot;data-cfemail&quot;);if(a){for(e=&quot;&quot;,r=parseInt(a.substr(0,2),16),n=2;a.length-n;n+=2)i=parseInt(a.substr(n,2),16)^r,e+=String.fromCharCode(i);e=document.createTextNode(e),c.parentNode.replaceChild(e,c)}}}catch(u){}}();/* ]]&gt; */&lt;/script&gt;\nFormat settings, CABAC                   : Yes\nFormat settings, ReFrames                : 4 frames\nCodec ID                                 : avc1\nCodec ID/Info                            : Advanced Video Coding\nDuration                                 : 2h 7mn\nBit rate mode                            : Variable\nBit rate                                 : 553 Kbps\nWidth                                    : 720 pixels\nHeight                                   : 332 pixels\nDisplay aspect ratio                     : 2.145\nFrame rate mode                          : Constant\nFrame rate                               : 29.970 fps\nColor space                              : YUV\nChroma subsampling                       : 4:2:0\nBit depth                                : 8 bits\nScan type                                : Progressive\nBits/(Pixel*Frame)                       : 0.077\nStream size                              : 503 MiB (84%)\nWriting library                          : x264 core 128 r2216 198a7ea\n\n\nAudio\n\nID                                       : 2\nFormat                                   : AAC\nFormat/Info                              : Advanced Audio Codec\nFormat profile                           : LC\nCodec ID                                 : 40\nDuration                                 : 2h 7mn\nDuration_LastFrame                       : -3ms\nBit rate mode                            : Variable\nBit rate                                 : 96.0 Kbps\nChannel(s)                               : 2 channels\nChannel positions                        : Front: L R\nSampling rate                            : 48.0 KHz\nCompression mode                         : Lossy\nStream size                              : 86.7 MiB (15%)\n\n\n\nPlot\n\nRichard Phillips (Tom Hanks) takes command of the MV Maersk Alabama at port in Oman, with orders to sail its cargo through the Gulf of Aden to Mombasa. Wary of pirate activity off the coast of Somalia, he orders security precautions on the vessel. During one training exercise, Phillips is aware they might be hijacked by Somali pirates in two skiffs but he succeeds in outrunning the pirates. Four pirates return the next day led by Abduwali Muse (Barkhad Abdi) in a faster skiff. Despite Phillips and his crew's best efforts, they are able to board and take control of the Maersk Alabama, capturing the captain while most of his crew hides in the ship's engine room. Muse, under orders from a local faction leader, hopes to ransom the ship and crew in exchange for insurance money from the shipping company.\n\n\n\n\n* enjoy ...\n\n","torrent":{"xt":"urn:btih:d549d9959b645ca4ecac88fd4952ed7c38076996","amp;dn":"Captain+Phillips+ENG+TSCamRip.mp4","amp;tr":["udp%3A%2F%2Ftracker.openbittorrent.com%3A80","udp%3A%2F%2Fopen.demonii.com%3A1337","udp%3A%2F%2Ftracker.coppersurfer.tk%3A6969","udp%3A%2F%2Fexodus.desync.com%3A6969"],"infoHash":"d549d9959b645ca4ecac88fd4952ed7c38076996","infoHashBuffer":{"type":"Buffer","data":[213,73,217,149,155,100,92,164,236,172,136,253,73,82,237,124,56,7,105,150]},"announce":[],"urlList":[]}}